# xmcd
#
# Track frame offsets:
#	150
#	17031
#	28329
#	39702
#	47670
#	59133
#	72324
#	83932
#	97357
#	106304
#	130259
#	140015
#	174703
#
# Disc length: 2599 seconds
#
# Revision: 0
# Processed by: cddbd v1.5.2PL0 Copyright (c) Steve Scherf et al.
# Submitted via: EasyCDDAExtractor 10.5.1.1
#
DISCID=c90a250d
DTITLE=The Buffaloes - Privat Edition
DYEAR=1900
DGENRE=Country
TTITLE0=Jackson
TTITLE1=Louisiana Saturday Night
TTITLE2=I Saw The Light
TTITLE3=Hello Trouble
TTITLE4=Jakety Sax
TTITLE5=Red Staggerwing
TTITLE6=Sally Ann
TTITLE7=Hellecaster Theme
TTITLE8=House Of The Rising Sun
TTITLE9=Me And Bobby Mc Gee
TTITLE10=Drunken Sailor
TTITLE11=Orange Blossom Special
TTITLE12=Amazing Grace
EXTD=
EXTT0=
EXTT1=
EXTT2=
EXTT3=
EXTT4=
EXTT5=
EXTT6=
EXTT7=
EXTT8=
EXTT9=
EXTT10=
EXTT11=
EXTT12=
PLAYORDER=
